<?xml version="1.0" encoding="UTF-8"?>
<svg width="1024px" height="1024px" viewBox="0 0 1024 1024" version="1.1" xmlns="http://www.w3.org/2000/svg" xmlns:xlink="http://www.w3.org/1999/xlink">
    <title>anygo</title>
    <defs>
        <rect id="path-1" x="0" y="0" width="1024" height="1024" rx="241.47"></rect>
        <linearGradient x1="29.8737884%" y1="14.0729218%" x2="70.1251656%" y2="71.3581368%" id="linearGradient-3">
            <stop stop-color="#55AAFF" offset="0%"></stop>
            <stop stop-color="#165DE3" offset="100%"></stop>
        </linearGradient>
        <path d="M640,0 L640,270.53 C640,403.890199 531.890199,512 398.53,512 L0,512 L0,512 L640,0 Z" id="path-4"></path>
    </defs>
    <g id="页面-1" stroke="none" stroke-width="1" fill="none" fill-rule="evenodd">
        <g id="anygo">
            <g id="编组">
                <mask id="mask-2" fill="white">
                    <use xlink:href="#path-1"></use>
                </mask>
                <use id="蒙版" fill="#FFFFFF" fill-rule="nonzero" xlink:href="#path-1"></use>
                <g mask="url(#mask-2)">
                    <g transform="translate(-555.500000, 172.463924)">
                        <g id="编组" stroke-width="1" fill="none" fill-rule="evenodd" transform="translate(0.000000, 606.906076)">
                            <polygon id="路径" fill="#F2F2F2" fill-rule="nonzero" points="381.69 406.66 0 406.66 747.06 -1.13686838e-13 861.63 -1.13686838e-13"></polygon>
                            <polygon id="路径" fill="#E1E1E1" fill-rule="nonzero" points="945.37 112.33 757.02 112.33 877.73 0.84 992.86 0.84"></polygon>
                            <polygon id="路径" fill="#C3E7F0" fill-rule="nonzero" points="820.02 406.66 438.33 406.66 739.91 128.12 938.64 128.12"></polygon>
                            <polygon id="路径" fill="#FFBB33" fill-rule="nonzero" points="1258.35 406.66 876.65 406.66 1010.21 -1.13686838e-13 1124.79 -1.13686838e-13"></polygon>
                            <polygon id="路径" fill="#E1E1E1" fill-rule="nonzero" points="1375.57 110.1 1188.68 110.1 1141.79 -1.13686838e-13 1256.37 -1.13686838e-13"></polygon>
                            <polygon id="路径" fill="#D7F1AA" fill-rule="nonzero" points="1696.67 406.66 1314.98 406.66 1196.36 128.12 1395.09 128.12"></polygon>
                            <polygon id="路径" fill="#F2F2F2" fill-rule="nonzero" points="2135 406.66 1753.31 406.66 1273.37 -1.13686838e-13 1387.94 -1.13686838e-13"></polygon>
                        </g>
                        <path d="M1063.68,672.266076 C1015.87,615.716076 977.03,565.406076 948.24,522.726076 C918.268366,478.015618 891.555925,431.204513 868.31,382.656076 C843.88,332.006076 831.5,284.096076 831.5,240.266076 C831.5,207.776076 837.75,176.956076 850.07,148.646076 C862.159473,120.687852 879.422204,95.2653594 900.95,73.7160755 C922.393208,52.4286182 947.693796,35.4190207 975.5,23.5960755 C1034.33607,-1.15593696 1100.66393,-1.15593696 1159.5,23.5960755 C1187.30696,35.4230783 1212.6101,52.4321115 1234.06,73.7160755 C1255.575,95.2759297 1272.83598,120.695843 1284.94,148.646076 C1297.25,176.996076 1303.5,207.816076 1303.5,240.266076 C1303.5,284.066076 1291.12,331.976076 1266.69,382.656076 C1243.43373,431.199094 1216.72171,478.00947 1186.76,522.726076 C1157.93,565.446076 1119.09,615.726076 1071.32,672.266076 L1067.5,676.776076 L1063.68,672.266076 Z M1067.5,163.364952 C1057.16338,163.310946 1046.91641,165.284914 1037.34,169.176076 C1028.1961,172.880461 1019.96627,178.527384 1013.22,185.726076 L1013.1,185.856076 L1012.97,185.966076 C1005.69892,192.789081 999.9119,201.037283 995.97,210.196076 C987.770151,229.397284 987.770151,251.114867 995.97,270.316076 C1000.03423,279.693206 1005.83631,288.216502 1013.07,295.436076 C1020.08179,302.367117 1028.33995,307.911009 1037.41,311.776076 C1056.61818,319.975795 1078.34182,319.975795 1097.55,311.776076 C1106.6173,307.905936 1114.87456,302.362649 1121.89,295.436076 C1129.11882,288.214181 1134.92326,279.6958 1139,270.326076 C1147.20037,251.1215 1147.20037,229.400651 1139,210.196076 C1135.05534,201.038824 1129.2687,192.791152 1122,185.966076 L1121.88,185.856076 L1121.76,185.726076 C1115.01165,178.529811 1106.78238,172.88328 1097.64,169.176076 C1088.06982,165.287484 1077.8299,163.313564 1067.5,163.364952 Z" id="形状" fill="url(#linearGradient-3)" fill-rule="nonzero"></path>
                        <path d="M1067.5,10.0360755 C1099.42667,10.0360755 1129.42667,16.0894089 1157.5,28.1960755 C1184.73674,39.744716 1209.51474,56.3935004 1230.5,77.2460755 C1251.59903,98.3440805 1268.5075,123.250396 1280.33,150.646076 C1292.44333,178.459409 1298.5,208.332742 1298.5,240.266076 C1298.5,283.526076 1286.39667,330.266076 1262.19,380.486076 C1239.04946,428.818477 1212.45383,475.419319 1182.61,519.926076 C1153.76333,562.686076 1115.39333,612.389409 1067.5,669.036076 C1019.6,612.369409 981.226667,562.666076 952.38,519.926076 C922.534211,475.439746 895.941647,428.855135 872.81,380.536076 C848.603333,330.282742 836.5,283.526076 836.5,240.266076 C836.5,208.339409 842.553333,178.466076 854.66,150.646076 C866.477596,123.245259 883.390453,98.3374801 904.5,77.2460755 C925.483376,56.3912072 950.261852,39.742108 977.5,28.1960755 C1005.57333,16.0960755 1035.57333,10.0427422 1067.5,10.0360755 M1067.5,322.927318 C1078.53034,322.987773 1089.4525,320.750211 1099.57,316.356076 C1109.21561,312.252304 1117.99439,306.35454 1125.44,298.976076 C1133.12294,291.316235 1139.28495,282.270022 1143.6,272.316076 C1152.35971,251.840268 1152.35971,228.671883 1143.6,208.196076 C1139.39685,198.408995 1133.21387,189.597581 1125.44,182.316076 C1118.21161,174.57938 1109.38324,168.511794 1099.57,164.536076 C1078.98749,156.295581 1056.02251,156.295581 1035.44,164.536076 C1025.62272,168.505041 1016.79038,174.569595 1009.56,182.306076 C1001.78534,189.584724 995.605131,198.397052 991.41,208.186076 C982.650293,228.661883 982.650293,251.830268 991.41,272.306076 C995.717805,282.261559 1001.8769,291.308475 1009.56,298.966076 C1017.00919,306.344835 1025.79129,312.242553 1035.44,316.346076 C1045.55296,320.74453 1056.47209,322.985572 1067.5,322.927318 M1067.5,0.0360755299 C1035.19653,-0.13074418 1003.20274,6.33608596 973.5,19.0360755 C945.110377,31.109545 919.277567,48.475085 897.38,70.2060755 C875.430253,92.1979411 857.828805,118.135309 845.5,146.656076 C832.9,175.596076 826.5,207.086076 826.5,240.266076 C826.5,284.856076 839.05,333.496076 863.81,384.826076 C887.160085,433.59638 913.99285,480.621394 944.1,525.536076 C972.98,568.356076 1011.93,618.816076 1059.86,675.536076 L1067.5,684.536076 L1075.14,675.536076 C1123.03,618.886076 1161.98,568.426076 1190.9,525.536076 C1220.99681,480.616647 1247.83236,433.59596 1271.2,384.836076 C1295.95,333.476076 1308.5,284.836076 1308.5,240.276076 C1308.5,207.136076 1302.11,175.636076 1289.5,146.666076 C1277.15027,118.141112 1259.53633,92.1985484 1237.58,70.1960755 C1215.69461,48.4638225 1189.87595,31.0918789 1161.5,19.0060755 C1131.79684,6.30744883 1099.80333,-0.159323563 1067.5,0.00298109916 L1067.5,0.0360755299 Z M1067.5,312.927101 C1057.85093,312.9784 1048.29604,311.027242 1039.44,307.196076 C1030.94513,303.580337 1023.20957,298.392758 1016.64,291.906076 C1009.84924,285.131616 1004.40025,277.13456 1000.58,268.336076 C992.933111,250.403935 992.933111,230.128216 1000.58,212.196076 C1004.24687,203.665853 1009.63219,195.982753 1016.4,189.626076 L1016.65,189.386076 L1016.88,189.136076 C1023.14024,182.465947 1030.77221,177.232401 1039.25,173.796076 C1057.39653,166.548968 1077.63347,166.548968 1095.78,173.796076 C1104.27219,177.205556 1111.90961,182.442844 1118.15,189.136076 L1118.38,189.386076 L1118.63,189.616076 C1125.39399,195.973893 1130.77582,203.656877 1134.44,212.186076 C1142.09335,230.113423 1142.09335,250.388728 1134.44,268.316076 C1130.61641,277.115679 1125.1679,285.115423 1118.38,291.896076 C1111.80988,298.379551 1104.07429,303.563749 1095.58,307.176076 C1086.71996,311.019056 1077.15745,312.977191 1067.5,312.927101 L1067.5,312.927101 Z" id="形状" fill="#FFFFFF" fill-rule="nonzero"></path>
                    </g>
                </g>
            </g>
            <rect id="矩形" stroke="#CECECE" stroke-width="10" x="5" y="5" width="1014" height="1014" rx="241.47"></rect>
            <g id="编组-37" transform="translate(384.000000, 512.000000)">
                <mask id="mask-5" fill="white">
                    <use xlink:href="#path-4"></use>
                </mask>
                <use id="蒙版" fill="#061235" xlink:href="#path-4"></use>
                <g id="IOS_wordmark_(2017)" mask="url(#mask-5)" fill="#FFFFFF" fill-rule="nonzero">
                    <g transform="translate(441.000000, 339.425611) rotate(-38.000000) translate(-441.000000, -339.425611) translate(291.000000, 265.000000)" id="path2">
                        <path d="M1.39465366,146.458784 L26.2030631,146.458784 L26.2030631,40.8497321 L1.39465366,40.8497321 L1.39465366,146.458784 Z M13.7491222,27.0001173 C21.520465,27.0001173 27.5979718,21.0220829 27.5979718,13.5499224 C27.5979718,5.9777794 21.520465,0 13.7491222,0 C6.07750683,0 0,5.97803446 0,13.5499224 C0,21.0223379 6.07750683,27.0001173 13.7491222,27.0001173 L13.7491222,27.0001173 Z M108.801349,0.298162057 C66.8571662,0.298162057 40.5531004,28.892643 40.5531004,74.624428 C40.5531004,120.356213 66.8546156,148.851222 108.801349,148.851222 C150.64606,148.851222 176.950126,120.356213 176.950126,74.624428 C176.950126,28.892643 150.648611,0.298162057 108.801349,0.298162057 Z M108.801349,22.2172817 C134.406558,22.2172817 150.745533,42.5422928 150.745533,74.6239179 C150.745533,106.605561 134.406048,126.931082 108.801349,126.931082 C83.0966684,126.931082 66.8571662,106.606071 66.8571662,74.6239179 C66.8571662,42.5428029 83.0971786,22.2172817 108.801349,22.2172817 Z M187.41513,106.008726 C188.511086,132.511737 210.230776,148.850712 243.3084,148.850712 C278.08037,148.850712 300,131.713917 300,104.414618 C300,82.9938803 287.645531,70.938339 258.453706,64.2634879 L241.914767,60.4774164 C224.279846,56.2929453 217.006885,50.7135655 217.006885,41.1489144 C217.006885,29.1931005 227.966445,21.222558 244.206202,21.222558 C260.645414,21.222558 271.902881,29.292828 273.0991,42.7430229 L297.608582,42.7430229 C297.010779,17.4364865 276.088117,0.298927229 244.406167,0.298927229 C213.120831,0.298927229 190.902784,17.5351937 190.902784,43.04144 C190.902784,63.5656509 203.456452,76.3187741 229.957167,82.396791 L248.588343,86.780717 C266.721391,91.0649155 274.094079,97.0426949 274.094079,107.4044 C274.094079,119.360214 262.038537,127.928611 244.703819,127.928611 C227.168625,127.928611 213.918395,119.260742 212.324287,106.009492 L187.416405,106.009492 L187.41513,106.008726 Z"></path>
                    </g>
                </g>
            </g>
        </g>
    </g>
</svg>